<?xml version="1.0" encoding="UTF-8"?>
<svg xmlns="http://www.w3.org/2000/svg" version="1.1" viewBox="0 0 595.28 841.89">
  <defs>
    <style>
      .cls-1, .cls-2 {
        display: none;
      }

      .cls-1, .cls-3 {
        fill: #fff;
      }

      .cls-1, .cls-3, .cls-4 {
        stroke: #231f20;
        stroke-miterlimit: 10;
      }

      .cls-2 {
        font-size: 12px;
      }

      .cls-2, .cls-5, .cls-6, .cls-7 {
        font-family: MyriadPro-Regular, 'Myriad Pro';
      }

      .cls-5 {
        font-size: 19.64px;
      }

      .cls-6 {
        font-size: 21px;
      }

      .cls-7 {
        font-size: 14px;
      }

      .cls-4 {
        fill: none;
      }
    </style>
  </defs>
  <!-- Generator: Adobe Illustrator 28.7.1, SVG Export Plug-In . SVG Version: 1.2.0 Build 142)  -->
  <g>
    <g id="Layer_1">
      <rect class="cls-3" x="33.93" y="31.95" width="501" height="308"/>
      <text class="cls-6" transform="translate(234.65 70.48)"><tspan x="0" y="0">Mike Mayer</tspan></text>
      <text class="cls-7" transform="translate(233.59 93.03)"><tspan x="0" y="0">Full Stack Engineer</tspan></text>
      <text class="cls-6" transform="translate(163 137.16)"><tspan x="0" y="0">Website Design and Depolyment</tspan><tspan x="0" y="25.2" xml:space="preserve">      Application  Developemnt</tspan></text>
      <text class="cls-5" transform="translate(63 196.97) scale(.71 1)"><tspan x="0" y="0">Background</tspan></text>
      <rect class="cls-4" x="64.06" y="216" width="302.94" height="103"/>
      <rect class="cls-4" x="33.93" y="365" width="501" height="421"/>
      <text class="cls-6" transform="translate(64.06 389)"><tspan x="0" y="0">Websites</tspan></text>
      <text class="cls-6" transform="translate(220.19 389)"><tspan x="0" y="0">Applications</tspan></text>
      <text class="cls-6" transform="translate(439.01 393.39)"><tspan x="0" y="0">Visuals</tspan></text>
      <rect class="cls-1" x="864" y="304" width="501" height="245"/>
      <rect class="cls-1" x="874" y="304" width="501" height="245"/>
      <ellipse class="cls-3" cx="98" cy="103.5" rx="35" ry="49.5"/>
      <text/>
      <text class="cls-2" transform="translate(156 71)"><tspan x="0" y="0">MIke Mayer</tspan></text>
      <text/>
      <text/>
    </g>
  </g>
</svg>